<svg id="Layer_2" data-name="Layer 2" xmlns="http://www.w3.org/2000/svg" xmlns:xlink="http://www.w3.org/1999/xlink" viewBox="0 0 1178.62 297.12">
  <defs>
    <style>
      .cls-1 {
        fill: url(#linear-gradient);
      }

      .cls-2 {
        fill: #fff;
      }

      .cls-3 {
        fill: url(#linear-gradient-2);
      }
    </style>
    <linearGradient id="linear-gradient" x1="-45.31" y1="93.44" x2="351.76" y2="93.44" gradientUnits="userSpaceOnUse">
      <stop offset=".03" stop-color="#52eaac"/>
      <stop offset="1" stop-color="#d4aafc"/>
    </linearGradient>
    <linearGradient id="linear-gradient-2" x1="-44.4" y1="242" x2="348.87" y2="242" xlink:href="#linear-gradient"/>
  </defs>
  <g id="Layer_1-2" data-name="Layer 1">
    <g>
      <g>
        <path class="cls-2" d="M1178.58,144.69V58.61h-37.61v15.74c-14.96-10.64-32.81-16.38-51.54-16.38-23.82,0-46.22,9.28-63.06,26.12-16.84,16.84-26.12,39.24-26.12,63.06s9.28,46.22,26.12,63.06,39.24,26.12,63.06,26.12c18.73,0,36.58-5.74,51.54-16.38v15.99h37.61v-86.32c.02-.82,.04-1.64,.04-2.47s-.01-1.65-.04-2.47Zm-37.61,6.14c-1.89,26.78-24.28,48-51.54,48s-51.67-23.18-51.67-51.67,23.18-51.67,51.67-51.67,49.65,21.21,51.54,48v7.35Z"/>
        <path class="cls-2" d="M835.66,18.83h-37.61V180.27c0,32.16,26.07,58.24,58.24,58.24h42.3v-37.61h-62.93V18.83Z"/>
        <path class="cls-2" d="M939.11,18.83h-37.61V180.27c0,32.16,26.07,58.24,58.24,58.24h42.3v-37.61h-62.93V18.83Z"/>
        <path class="cls-2" d="M760.28,79.58c-17.76-17.89-37.22-27.64-67.68-27.64-25.21,0-48.92,9.82-66.74,27.64-17.83,17.83-27.64,41.53-27.64,66.74s9.81,48.92,27.64,66.75c17.83,17.83,41.53,27.64,66.74,27.64s48.91-9.82,66.74-27.64c9.48-9.48,16.7-20.63,21.37-32.77h-42.53c-10.38,13.9-26.95,22.91-45.59,22.91-24.79,0-47.85-20.08-53.28-42.29h146.85s2.6-52.63-25.89-81.33Zm-120.96,47.99c4.94-23.09,25.06-41.16,53.28-41.16,33.92,0,51.34,27.28,51.34,41.16h-104.62Z"/>
        <polygon class="cls-2" points="591.09 109.37 591.09 100.8 591.09 63.2 433.59 63.2 433.59 100.8 545.27 100.8 430.35 195.11 430.35 196.27 430.35 233.87 597.4 233.87 597.4 196.27 485.21 196.27 591.09 109.37"/>
      </g>
      <g>
        <polygon class="cls-1" points="319.14 0 0 0 0 110.24 246.73 110.24 246.73 186.88 319.14 110.24 319.14 0"/>
        <polygon class="cls-3" points="0 297.12 214.99 297.12 319.14 186.88 246.73 186.88 0 186.88 0 297.12"/>
      </g>
    </g>
  </g>
</svg>